<?xml version="1.0" encoding="utf-8"?>
<!-- Generator: Adobe Illustrator 15.0.2, SVG Export Plug-In . SVG Version: 6.00 Build 0)  -->
<!DOCTYPE svg PUBLIC "-//W3C//DTD SVG 1.1//EN" "http://www.w3.org/Graphics/SVG/1.1/DTD/svg11.dtd">
<svg version="1.1" xmlns="http://www.w3.org/2000/svg" xmlns:xlink="http://www.w3.org/1999/xlink" x="0px" y="0px" width="16px"
	 height="16px" viewBox="0 0 16 16" enable-background="new 0 0 16 16" xml:space="preserve">
<g id="Layer_1" display="none">
	<path display="inline" d="M8,0C3.582,0,0,3.582,0,8s3.582,8,8,8s8-3.582,8-8S12.418,0,8,0z M8,14.871
		c-3.795,0-6.871-3.076-6.871-6.871S4.205,1.129,8,1.129S14.871,4.205,14.871,8S11.795,14.871,8,14.871z"/>
	<polygon display="inline" points="10.711,3.965 8,6.676 5.289,3.965 3.757,5.497 6.468,8.208 3.757,10.919 5.29,12.451 8,9.74 
		10.71,12.451 12.243,10.919 9.533,8.208 12.243,5.498 	"/>
</g>
<g id="Layer_1_copy">
	<g>
		<polygon points="1.979,11.535 5.514,8 1.979,4.464 4.807,1.636 8.342,5.172 11.877,1.636 14.707,4.464 11.17,8 14.707,11.535 
			11.877,14.364 8.342,10.828 4.807,14.364 		"/>
		<path fill="#FFFFFF" d="M11.877,2.343L14,4.464L10.463,8L14,11.535l-2.123,2.122l-3.535-3.536l-3.535,3.536l-2.121-2.122L6.221,8
			L2.686,4.464l2.121-2.121l3.535,3.536L11.877,2.343 M4.807,0.929L4.1,1.636L1.979,3.757L1.271,4.464l0.707,0.707L4.807,8
			l-2.829,2.828l-0.707,0.707l0.707,0.707L4.1,14.364l0.707,0.707l0.707-0.707l2.828-2.829l2.828,2.829l0.707,0.707l0.707-0.707
			l2.123-2.122l0.707-0.707l-0.707-0.707L11.877,8l2.83-2.829l0.708-0.707l-0.708-0.708l-2.123-2.121l-0.707-0.707L11.17,1.636
			L8.342,4.465L5.514,1.636L4.807,0.929L4.807,0.929z"/>
	</g>
</g>
</svg>
