<?xml version="1.0" encoding="utf-8"?>
<!-- Generator: Adobe Illustrator 15.0.2, SVG Export Plug-In . SVG Version: 6.00 Build 0)  -->
<!DOCTYPE svg PUBLIC "-//W3C//DTD SVG 1.1//EN" "http://www.w3.org/Graphics/SVG/1.1/DTD/svg11.dtd">
<svg version="1.1" id="Layer_1" xmlns="http://www.w3.org/2000/svg" xmlns:xlink="http://www.w3.org/1999/xlink" x="0px" y="0px"
	 width="14.862px" height="14.862px" viewBox="0 0 14.862 14.862" enable-background="new 0 0 14.862 14.862" xml:space="preserve">
<path fill="#2B2B2B" d="M1.751,1.751c-2.335,2.335-2.335,6.121,0,8.456s6.12,2.334,8.455-0.001s2.336-6.12,0-8.455
	C7.872-0.583,4.086-0.584,1.751,1.751z M8.778,8.778c-1.546,1.546-4.053,1.546-5.599,0s-1.546-4.053,0-5.599
	c1.546-1.546,4.053-1.546,5.599,0C10.324,4.726,10.324,7.232,8.778,8.778z"/>
<rect x="10.15" y="8.608" transform="matrix(-0.707 0.7072 -0.7072 -0.707 28.1257 11.6488)" fill="#2B2B2B" width="3.001" height="6.084"/>
</svg>
