<?xml version="1.0" encoding="utf-8"?>
<!-- Generator: Adobe Illustrator 16.0.0, SVG Export Plug-In . SVG Version: 6.00 Build 0)  -->
<!DOCTYPE svg PUBLIC "-//W3C//DTD SVG 1.1//EN" "http://www.w3.org/Graphics/SVG/1.1/DTD/svg11.dtd">
<svg version="1.1" id="Layer_1" xmlns="http://www.w3.org/2000/svg" xmlns:xlink="http://www.w3.org/1999/xlink" x="0px" y="0px"
	 width="28.199px" height="156.526px" viewBox="0 0.251 28.199 156.526" enable-background="new 0 0.251 28.199 156.526"
	 xml:space="preserve">
<g id="neUpBd_1_">
	<g id="XMLID_2_">
		<g>
			<path d="M14.001,11.605c-3.301-0.229-5.23-1.833-6.984-3.609c-0.896,1.614-0.235,3.8,0.932,4.656
				c-0.45-0.172-1.047-0.194-1.396-0.466c0.039,1.939,1.059,2.896,2.444,3.491c-0.309,0.271-0.794,0.021-1.164,0
				c0.386,1.438,1.317,2.326,3.025,2.442c-0.982,1.148-3.217,1.546-5.003,1.513c6.739,4.186,15.696-0.628,15.247-8.844
				c0.762-0.404,1.244-1.084,1.746-1.747c-0.619,0.119-1.084,0.391-1.746,0.467c0.451-0.599,1.09-1.004,1.28-1.861
				c-0.724,0.284-1.343,0.675-2.211,0.813C17.924,6.135,13.594,7.889,14.001,11.605z M23.662,4.038
				c2.146,2.115,4.218,6.185,3.957,10.478c-0.439,7.26-5.893,12.236-12.571,12.688C7.233,27.725,1.113,22.029,0.617,14.631
				c-0.289-4.31,1.584-7.646,3.375-9.775c1.936-2.307,4.731-4.139,8.844-4.539C17.327-0.126,21.318,1.734,23.662,4.038z"/>
			<path fill="#FFFFFF" d="M21.102,10.79c0.448,8.216-8.509,13.028-15.248,8.844c1.787,0.033,4.021-0.363,5.003-1.513
				c-1.708-0.116-2.639-1.006-3.025-2.441c0.37,0.02,0.855,0.271,1.164,0c-1.385-0.596-2.406-1.553-2.444-3.492
				c0.349,0.271,0.946,0.294,1.396,0.466C6.782,11.796,6.121,9.61,7.017,7.996c1.754,1.776,3.684,3.38,6.984,3.609
				c-0.407-3.717,3.922-5.471,6.168-3.145c0.868-0.14,1.487-0.529,2.211-0.813c-0.19,0.857-0.83,1.264-1.28,1.861
				c0.662-0.076,1.125-0.348,1.746-0.467C22.346,9.706,21.861,10.385,21.102,10.79z"/>
		</g>
	</g>
</g>
<g id="J9qKLS_1_">
	<g id="XMLID_3_">
		<g>
			<path d="M23.324,46.585c2.146,2.112,4.219,6.184,3.958,10.476c-0.44,7.26-5.892,12.237-12.571,12.685
				C6.896,70.27,0.777,64.576,0.28,57.176c-0.289-4.31,1.586-7.646,3.376-9.776c1.936-2.305,4.73-4.134,8.844-4.539
				C16.988,42.419,20.98,44.279,23.324,46.585z"/>
		</g>
	</g>
</g>
<path fill="#FFFFFF" d="M21.833,53.412c-0.608-0.387-7.295-4.83-7.295-4.83s-0.547-0.506-1.305,0l-7.041,4.646
	c0,0-0.852,0.444-0.852,1.348c0,1.066,0,4.675,0,4.675s0.04,0.368,0.563,0.718c0.524,0.351,7.274,4.89,7.274,4.89
	s0.699,0.483,1.358,0c0.66-0.486,7.355-4.967,7.355-4.967s0.448-0.154,0.448-0.814c0-0.659,0-4.713,0-4.713
	S22.275,53.693,21.833,53.412z M15.341,50.289l5.224,3.825l-2.319,1.703l-2.903-2.036L15.341,50.289L15.341,50.289z M13.341,50.289
	v3.492l-3.243,2.036l-2.52-1.703L13.341,50.289z M7.341,55.527l1.804,1.164l-1.804,1.163V55.527z M13.341,63.092l-5.803-3.782
	l2.562-1.707l3.241,2.037V63.092z M13.832,58.359l-2.476-1.668l2.476-1.688l2.548,1.712L13.832,58.359z M15.341,62.859v-3.24
	l2.761-2.018l2.528,1.669L15.341,62.859z M20.341,57.854l-1.745-1.163l1.745-1.164V57.854z"/>
<path d="M13.397,86.859c4.49-0.44,8.481,1.42,10.822,3.726c2.148,2.112,4.219,6.183,3.958,10.476
	c-0.438,7.26-5.891,12.237-12.567,12.685c-7.816,0.525-13.938-5.168-14.435-12.568c-0.287-4.31,1.586-7.646,3.377-9.776
	C6.486,89.094,9.283,87.264,13.397,86.859z"/>
<path fill="#FFFFFF" d="M20.148,91.865c0.354,0.517,0.662,2.003,0.397,2.761c2.44,2.769,0.938,8.921-3.657,8.411
	c1.172,0.534,0.307,3.131,0.697,4.771c0.188,0.796,0.871,0.824,0.814,1.396c-2.659,0.449-1.457-2.964-2.096-4.539
	c-0.326,1.575-0.102,4.207,0.35,5.006c-2.329,0.039-1.34-3.235-1.746-5.121c-0.745,1.543,0.682,5.261-1.745,5.121
	c-0.15-0.473,0.346-0.728,0.465-1.396c0.186-1.031-0.14-2.451,0-3.608c-1.105,1.07,0.479,5.438-2.328,4.424
	c0.807-0.513,0.939-1.699,0.815-3.142c-2.938,0.698-3.343-1.964-4.654-3.259c1.796-0.168,1.808,1.45,2.908,1.977
	c1.795,0.358,1.993-0.88,2.679-1.629c-4.464,0.522-6.63-5.24-3.957-8.261c-0.43-0.686-0.281-2.33,0.115-2.911
	c1.311,0.047,2.088,0.628,2.909,1.162c1.685-0.854,4.101-0.737,5.121-0.114C17.758,92.394,18.99,91.589,20.148,91.865z"/>
<path d="M12.251,129.858c4.489-0.44,8.481,1.42,10.822,3.726c2.147,2.112,4.218,6.183,3.958,10.476
	c-0.439,7.26-5.891,12.237-12.567,12.685c-7.816,0.525-13.938-5.168-14.435-12.568c-0.287-4.31,1.586-7.646,3.377-9.776
	C5.339,132.094,8.136,130.263,12.251,129.858z"/>
<g>
	<path fill-rule="evenodd" clip-rule="evenodd" fill="#FFFFFF" d="M5.287,141.693c1.554,0,3.091,0,4.629,0
		c-0.517,1.861-0.098,3.433,1.527,4.522c1.37,0.918,2.851,0.906,4.209-0.023c1.596-1.094,2.009-2.656,1.487-4.497
		c1.541,0,3.078,0,4.644,0c0,0.088,0,0.168,0,0.246c-0.001,1.785,0.001,3.568-0.001,5.352c-0.003,2.108-1.428,3.795-3.505,4.146
		c-0.21,0.035-0.427,0.05-0.641,0.05c-2.738,0.002-5.478,0.002-8.216,0.001c-2.257-0.001-4.103-1.785-4.138-4.042
		c-0.03-1.88-0.008-3.761-0.008-5.64C5.275,141.779,5.281,141.75,5.287,141.693z"/>
	<path fill-rule="evenodd" clip-rule="evenodd" fill="#FFFFFF" d="M8.711,135.043c0,1.434,0,2.828,0,4.234c0.314,0,0.599,0,0.906,0
		c0-1.426,0-2.842,0-4.291c0.101,0,0.18,0,0.258,0c2.591,0,5.182-0.002,7.772,0c2.253,0.002,4.084,1.797,4.133,4.053
		c0.01,0.412,0.002,0.826,0.002,1.261c-0.096,0.005-0.174,0.014-0.253,0.014c-1.701,0.001-3.405,0.003-5.107-0.005
		c-0.111-0.001-0.246-0.052-0.33-0.125c-1.498-1.312-3.62-1.312-5.125,0.002c-0.076,0.066-0.19,0.122-0.288,0.123
		c-1.739,0.008-3.479,0.006-5.22,0.006c-0.05,0-0.101-0.008-0.156-0.013c0-0.528-0.031-1.054,0.007-1.572
		c0.08-1.102,0.58-2.002,1.4-2.73c0.049-0.044,0.104-0.082,0.188-0.149c0,1.159,0,2.284,0,3.424c0.312,0,0.597,0,0.907,0
		c0.004-0.084,0.011-0.17,0.011-0.256c0.001-1.162,0.006-2.324-0.005-3.486c0-0.184,0.062-0.27,0.229-0.311
		C8.254,135.169,8.464,135.109,8.711,135.043z M19.507,138.201c0-0.221,0.004-0.442-0.002-0.664
		c-0.01-0.324-0.188-0.508-0.512-0.515c-0.436-0.008-0.873-0.008-1.309,0c-0.321,0.007-0.508,0.198-0.511,0.517
		c-0.004,0.436-0.004,0.871,0,1.307c0.003,0.297,0.157,0.493,0.448,0.506c0.479,0.021,0.96,0.021,1.438-0.001
		c0.285-0.013,0.435-0.198,0.445-0.484C19.513,138.645,19.506,138.424,19.507,138.201z"/>
	<path fill-rule="evenodd" clip-rule="evenodd" fill="#FFFFFF" d="M11.244,142.997c0.027-1.294,1.057-2.274,2.361-2.247
		c1.233,0.026,2.236,1.075,2.208,2.311c-0.029,1.271-1.061,2.274-2.316,2.255C12.236,145.296,11.219,144.248,11.244,142.997z"/>
</g>
</svg>
