<?xml version="1.0" encoding="utf-8"?>
<!-- Generator: Adobe Illustrator 15.0.2, SVG Export Plug-In . SVG Version: 6.00 Build 0)  -->
<!DOCTYPE svg PUBLIC "-//W3C//DTD SVG 1.1//EN" "http://www.w3.org/Graphics/SVG/1.1/DTD/svg11.dtd">
<svg version="1.1" id="Layer_1" xmlns="http://www.w3.org/2000/svg" xmlns:xlink="http://www.w3.org/1999/xlink" x="0px" y="0px"
	 width="28.199px" height="113.777px" viewBox="0 0 28.199 113.777" enable-background="new 0 0 28.199 113.777"
	 xml:space="preserve">
<g id="neUpBd_1_">
	<g id="XMLID_2_">
		<g>
			<path d="M14.001,11.605c-3.301-0.229-5.23-1.833-6.984-3.609c-0.896,1.614-0.235,3.8,0.932,4.656
				c-0.45-0.172-1.047-0.194-1.396-0.466c0.039,1.94,1.059,2.897,2.444,3.492c-0.309,0.271-0.794,0.02-1.164,0
				c0.386,1.437,1.317,2.326,3.025,2.442c-0.982,1.148-3.217,1.546-5.003,1.513c6.739,4.185,15.696-0.628,15.247-8.844
				c0.761-0.404,1.244-1.084,1.745-1.747c-0.619,0.119-1.083,0.39-1.745,0.467c0.45-0.599,1.09-1.004,1.28-1.862
				c-0.724,0.284-1.343,0.675-2.211,0.814C17.924,6.136,13.594,7.889,14.001,11.605z M23.662,4.038
				c2.147,2.115,4.218,6.184,3.957,10.477c-0.44,7.26-5.892,12.237-12.571,12.688C7.233,27.725,1.113,22.029,0.617,14.631
				c-0.289-4.31,1.584-7.646,3.375-9.776c1.936-2.306,4.731-4.138,8.844-4.539C17.327-0.126,21.319,1.734,23.662,4.038z"/>
			<path fill="#FFFFFF" d="M21.101,10.79c0.449,8.216-8.508,13.028-15.247,8.844c1.787,0.033,4.021-0.364,5.003-1.513
				c-1.708-0.116-2.639-1.006-3.025-2.442c0.37,0.02,0.855,0.271,1.164,0c-1.385-0.595-2.406-1.552-2.444-3.492
				c0.349,0.271,0.946,0.294,1.396,0.466C6.782,11.796,6.121,9.61,7.017,7.996c1.754,1.776,3.684,3.38,6.984,3.609
				c-0.407-3.717,3.922-5.47,6.168-3.144c0.868-0.14,1.487-0.53,2.211-0.814c-0.19,0.858-0.83,1.264-1.28,1.862
				c0.661-0.077,1.125-0.348,1.745-0.467C22.345,9.706,21.862,10.386,21.101,10.79z"/>
		</g>
		<g>
		</g>
	</g>
</g>
<g id="J9qKLS_1_">
	<g id="XMLID_3_">
		<g>
			<path d="M23.324,46.585c2.147,2.112,4.219,6.183,3.958,10.475c-0.44,7.26-5.892,12.238-12.571,12.685
				C6.896,70.27,0.777,64.576,0.28,57.176c-0.289-4.31,1.586-7.646,3.376-9.777c1.936-2.304,4.73-4.134,8.844-4.539
				C16.988,42.419,20.981,44.279,23.324,46.585z"/>
		</g>
		<g>
		</g>
	</g>
</g>
<path fill="#FFFFFF" d="M21.833,53.412c-0.609-0.387-7.295-4.83-7.295-4.83s-0.547-0.506-1.305,0l-7.041,4.646
	c0,0-0.852,0.445-0.852,1.348c0,1.066,0,4.675,0,4.675s0.04,0.368,0.563,0.718c0.524,0.35,7.274,4.889,7.274,4.889
	s0.699,0.484,1.358,0c0.66-0.486,7.355-4.967,7.355-4.967s0.449-0.154,0.449-0.814c0-0.659,0-4.713,0-4.713
	S22.276,53.693,21.833,53.412z M15.341,50.289l5.224,3.825l-2.32,1.703l-2.903-2.036V50.289z M13.341,50.289v3.492l-3.243,2.036
	l-2.52-1.703L13.341,50.289z M7.341,55.527l1.804,1.164l-1.804,1.163V55.527z M13.341,63.092l-5.803-3.783l2.562-1.707l3.241,2.037
	V63.092z M13.832,58.359l-2.476-1.668l2.476-1.688l2.548,1.712L13.832,58.359z M15.341,62.859v-3.24l2.76-2.018l2.529,1.669
	L15.341,62.859z M20.341,57.854l-1.746-1.163l1.746-1.164V57.854z"/>
<path d="M13.397,86.859c4.489-0.44,8.481,1.42,10.822,3.726c2.148,2.112,4.218,6.182,3.958,10.475
	c-0.439,7.26-5.891,12.238-12.567,12.685c-7.817,0.525-13.938-5.168-14.435-12.568c-0.287-4.31,1.586-7.646,3.377-9.777
	C6.486,89.095,9.283,87.264,13.397,86.859z"/>
<path fill="#FFFFFF" d="M20.149,91.865c0.354,0.517,0.661,2.003,0.397,2.761c2.441,2.768,0.939,8.921-3.658,8.411
	c1.172,0.534,0.308,3.131,0.698,4.771c0.188,0.796,0.871,0.825,0.815,1.396c-2.66,0.449-1.457-2.964-2.096-4.539
	c-0.326,1.575-0.102,4.207,0.35,5.006c-2.33,0.039-1.341-3.236-1.747-5.121c-0.745,1.543,0.682,5.26-1.745,5.121
	c-0.15-0.473,0.346-0.728,0.465-1.397c0.186-1.031-0.14-2.451,0-3.608c-1.105,1.07,0.479,5.438-2.328,4.424
	c0.807-0.513,0.939-1.7,0.815-3.142c-2.938,0.698-3.343-1.964-4.654-3.259c1.796-0.168,1.808,1.45,2.908,1.977
	c1.795,0.358,1.993-0.88,2.679-1.629c-4.464,0.522-6.63-5.24-3.957-8.261c-0.43-0.685-0.281-2.33,0.115-2.911
	c1.311,0.047,2.088,0.628,2.909,1.162c1.685-0.853,4.101-0.737,5.122-0.114C17.758,92.394,18.99,91.589,20.149,91.865z"/>
</svg>
